<?xml version="1.0" encoding="UTF-8"?>
<!--Generator: Apple Native CoreSVG 149-->
<!DOCTYPE svg
PUBLIC "-//W3C//DTD SVG 1.1//EN"
       "http://www.w3.org/Graphics/SVG/1.1/DTD/svg11.dtd">
<svg version="1.1" xmlns="http://www.w3.org/2000/svg" xmlns:xlink="http://www.w3.org/1999/xlink" width="3300" height="2200">
 <!--glyph: "uni100C1A.medium", point size: 100.000000, font version: "Version 16.0d18e1", template writer version: "8"-->
 <g id="Notes">
  <rect height="2200" id="artboard" style="fill:white;opacity:1" width="3300" x="0" y="0"/>
  <line id="" style="fill:none;stroke:black;opacity:1;stroke-width:0.5;" x1="263" x2="3036" y1="292" y2="292"/>
  <text style="stroke:none;fill:black;font-family:-apple-system,&quot;SF Pro Display&quot;,&quot;SF Pro Text&quot;,Helvetica,sans-serif;font-weight:bold;" transform="matrix(1 0 0 1 263 322)">Weight/Scale Variations</text>
  <text style="stroke:none;fill:black;font-family:-apple-system,&quot;SF Pro Display&quot;,&quot;SF Pro Text&quot;,Helvetica,sans-serif;text-anchor:middle;" transform="matrix(1 0 0 1 559.711 322)">Ultralight</text>
  <text style="stroke:none;fill:black;font-family:-apple-system,&quot;SF Pro Display&quot;,&quot;SF Pro Text&quot;,Helvetica,sans-serif;text-anchor:middle;" transform="matrix(1 0 0 1 856.422 322)">Thin</text>
  <text style="stroke:none;fill:black;font-family:-apple-system,&quot;SF Pro Display&quot;,&quot;SF Pro Text&quot;,Helvetica,sans-serif;text-anchor:middle;" transform="matrix(1 0 0 1 1153.13 322)">Light</text>
  <text style="stroke:none;fill:black;font-family:-apple-system,&quot;SF Pro Display&quot;,&quot;SF Pro Text&quot;,Helvetica,sans-serif;text-anchor:middle;" transform="matrix(1 0 0 1 1449.84 322)">Regular</text>
  <text style="stroke:none;fill:black;font-family:-apple-system,&quot;SF Pro Display&quot;,&quot;SF Pro Text&quot;,Helvetica,sans-serif;text-anchor:middle;" transform="matrix(1 0 0 1 1746.56 322)">Medium</text>
  <text style="stroke:none;fill:black;font-family:-apple-system,&quot;SF Pro Display&quot;,&quot;SF Pro Text&quot;,Helvetica,sans-serif;text-anchor:middle;" transform="matrix(1 0 0 1 2043.27 322)">Semibold</text>
  <text style="stroke:none;fill:black;font-family:-apple-system,&quot;SF Pro Display&quot;,&quot;SF Pro Text&quot;,Helvetica,sans-serif;text-anchor:middle;" transform="matrix(1 0 0 1 2339.98 322)">Bold</text>
  <text style="stroke:none;fill:black;font-family:-apple-system,&quot;SF Pro Display&quot;,&quot;SF Pro Text&quot;,Helvetica,sans-serif;text-anchor:middle;" transform="matrix(1 0 0 1 2636.69 322)">Heavy</text>
  <text style="stroke:none;fill:black;font-family:-apple-system,&quot;SF Pro Display&quot;,&quot;SF Pro Text&quot;,Helvetica,sans-serif;text-anchor:middle;" transform="matrix(1 0 0 1 2933.4 322)">Black</text>
  <line id="" style="fill:none;stroke:black;opacity:1;stroke-width:0.5;" x1="263" x2="3036" y1="1903" y2="1903"/>
  <g id="" transform="matrix(1 0 0 1 263 1933)">
   <path d="M9.24805 0.830078C13.5547 0.830078 17.1387-2.74414 17.1387-7.05078C17.1387-11.3574 13.5449-14.9316 9.23828-14.9316C4.94141-14.9316 1.36719-11.3574 1.36719-7.05078C1.36719-2.74414 4.95117 0.830078 9.24805 0.830078ZM9.24805-0.654297C5.70312-0.654297 2.87109-3.49609 2.87109-7.05078C2.87109-10.6055 5.69336-13.4473 9.23828-13.4473C12.793-13.4473 15.6348-10.6055 15.6445-7.05078C15.6543-3.49609 12.8027-0.654297 9.24805-0.654297ZM6.39648-6.31836L8.50586-6.31836L8.50586-4.19922C8.50586-3.75977 8.79883-3.45703 9.22852-3.45703C9.67773-3.45703 9.9707-3.75977 9.9707-4.19922L9.9707-6.31836L12.0996-6.31836C12.5391-6.31836 12.8418-6.61133 12.8418-7.04102C12.8418-7.48047 12.5391-7.7832 12.0996-7.7832L9.9707-7.7832L9.9707-9.89258C9.9707-10.3418 9.67773-10.6445 9.22852-10.6445C8.79883-10.6445 8.50586-10.3418 8.50586-9.89258L8.50586-7.7832L6.39648-7.7832C5.94727-7.7832 5.64453-7.48047 5.64453-7.04102C5.64453-6.61133 5.94727-6.31836 6.39648-6.31836Z"/>
  </g>
  <g id="" transform="matrix(1 0 0 1 281.506 1933)">
   <path d="M11.709 2.91016C17.1582 2.91016 21.6699-1.61133 21.6699-7.05078C21.6699-12.5 17.1484-17.0117 11.6992-17.0117C6.25977-17.0117 1.74805-12.5 1.74805-7.05078C1.74805-1.61133 6.26953 2.91016 11.709 2.91016ZM11.709 1.25C7.09961 1.25 3.41797-2.44141 3.41797-7.05078C3.41797-11.6602 7.08984-15.3516 11.6992-15.3516C16.3086-15.3516 20-11.6602 20.0098-7.05078C20.0195-2.44141 16.3184 1.25 11.709 1.25ZM7.98828-6.23047L10.8789-6.23047L10.8789-3.32031C10.8789-2.83203 11.2109-2.5 11.6895-2.5C12.1777-2.5 12.5195-2.83203 12.5195-3.32031L12.5195-6.23047L15.4297-6.23047C15.918-6.23047 16.25-6.5625 16.25-7.04102C16.25-7.5293 15.918-7.87109 15.4297-7.87109L12.5195-7.87109L12.5195-10.7617C12.5195-11.2695 12.1777-11.6016 11.6895-11.6016C11.2109-11.6016 10.8789-11.2598 10.8789-10.7617L10.8789-7.87109L7.98828-7.87109C7.48047-7.87109 7.14844-7.5293 7.14844-7.04102C7.14844-6.5625 7.49023-6.23047 7.98828-6.23047Z"/>
  </g>
  <g id="" transform="matrix(1 0 0 1 304.924 1933)">
   <path d="M14.9707 5.66406C21.9336 5.66406 27.6953-0.0976562 27.6953-7.05078C27.6953-14.0137 21.9238-19.7754 14.9609-19.7754C8.00781-19.7754 2.25586-14.0137 2.25586-7.05078C2.25586-0.0976562 8.01758 5.66406 14.9707 5.66406ZM14.9707 3.84766C8.93555 3.84766 4.08203-1.01562 4.08203-7.05078C4.08203-13.0957 8.92578-17.9492 14.9609-17.9492C21.0059-17.9492 25.8594-13.0957 25.8691-7.05078C25.8789-1.01562 21.0156 3.84766 14.9707 3.84766ZM10.0586-6.14258L14.0625-6.14258L14.0625-2.12891C14.0625-1.5918 14.4336-1.2207 14.9512-1.2207C15.4883-1.2207 15.8594-1.5918 15.8594-2.12891L15.8594-6.14258L19.8828-6.14258C20.4102-6.14258 20.791-6.51367 20.791-7.03125C20.791-7.56836 20.4199-7.94922 19.8828-7.94922L15.8594-7.94922L15.8594-11.9531C15.8594-12.5098 15.4883-12.8809 14.9512-12.8809C14.4336-12.8809 14.0625-12.5 14.0625-11.9531L14.0625-7.94922L10.0586-7.94922C9.50195-7.94922 9.13086-7.56836 9.13086-7.03125C9.13086-6.51367 9.51172-6.14258 10.0586-6.14258Z"/>
  </g>
  <text style="stroke:none;fill:black;font-family:-apple-system,&quot;SF Pro Display&quot;,&quot;SF Pro Text&quot;,Helvetica,sans-serif;font-weight:bold;" transform="matrix(1 0 0 1 263 1953)">Design Variations</text>
  <text style="stroke:none;fill:black;font-family:-apple-system,&quot;SF Pro Display&quot;,&quot;SF Pro Text&quot;,Helvetica,sans-serif;" transform="matrix(1 0 0 1 263 1971)">Symbols are supported in up to nine weights and three scales.</text>
  <text style="stroke:none;fill:black;font-family:-apple-system,&quot;SF Pro Display&quot;,&quot;SF Pro Text&quot;,Helvetica,sans-serif;" transform="matrix(1 0 0 1 263 1989)">For optimal layout with text and other symbols, vertically align</text>
  <text style="stroke:none;fill:black;font-family:-apple-system,&quot;SF Pro Display&quot;,&quot;SF Pro Text&quot;,Helvetica,sans-serif;" transform="matrix(1 0 0 1 263 2007)">symbols with the adjacent text.</text>
  <line id="" style="fill:none;stroke:#00AEEF;stroke-width:0.5;opacity:1.0;" x1="776" x2="776" y1="1919" y2="1933"/>
  <g id="" transform="matrix(1 0 0 1 776 1933)">
   <path d="M3.31055 0.126953C3.82812 0.126953 4.08203-0.0683594 4.26758-0.605469L5.52734-4.0625L11.2891-4.0625L12.5488-0.605469C12.7344-0.0683594 12.9883 0.126953 13.4961 0.126953C14.0137 0.126953 14.3457-0.185547 14.3457-0.673828C14.3457-0.839844 14.3164-0.986328 14.2383-1.20117L9.6582-13.3887C9.43359-13.9941 9.0332-14.2871 8.4082-14.2871C7.80273-14.2871 7.39258-13.9941 7.17773-13.3984L2.59766-1.19141C2.51953-0.976562 2.49023-0.830078 2.49023-0.664062C2.49023-0.175781 2.80273 0.126953 3.31055 0.126953ZM6.00586-5.53711L8.37891-12.1094L8.42773-12.1094L10.8008-5.53711Z"/>
  </g>
  <line id="" style="fill:none;stroke:#00AEEF;stroke-width:0.5;opacity:1.0;" x1="792.836" x2="792.836" y1="1919" y2="1933"/>
  <text style="stroke:none;fill:black;font-family:-apple-system,&quot;SF Pro Display&quot;,&quot;SF Pro Text&quot;,Helvetica,sans-serif;font-weight:bold;" transform="matrix(1 0 0 1 776 1953)">Margins</text>
  <text style="stroke:none;fill:black;font-family:-apple-system,&quot;SF Pro Display&quot;,&quot;SF Pro Text&quot;,Helvetica,sans-serif;" transform="matrix(1 0 0 1 776 1971)">Leading and trailing margins on the left and right side of each symbol</text>
  <text style="stroke:none;fill:black;font-family:-apple-system,&quot;SF Pro Display&quot;,&quot;SF Pro Text&quot;,Helvetica,sans-serif;" transform="matrix(1 0 0 1 776 1989)">can be adjusted by modifying the x-location of the margin guidelines.</text>
  <text style="stroke:none;fill:black;font-family:-apple-system,&quot;SF Pro Display&quot;,&quot;SF Pro Text&quot;,Helvetica,sans-serif;" transform="matrix(1 0 0 1 776 2007)">Modifications are automatically applied proportionally to all</text>
  <text style="stroke:none;fill:black;font-family:-apple-system,&quot;SF Pro Display&quot;,&quot;SF Pro Text&quot;,Helvetica,sans-serif;" transform="matrix(1 0 0 1 776 2025)">scales and weights.</text>
  <g id="" transform="matrix(1 0 0 1 1289 1933)">
   <path d="M2.8418 1.86523L4.54102 3.57422C5.40039 4.44336 6.38672 4.38477 7.31445 3.35938L17.4902-7.85156C17.7539-7.76367 18.0273-7.7832 18.3398-7.8418L19.4043-8.03711L20.0684-7.36328L20.0293-6.80664C19.9902-6.30859 20.1172-5.92773 20.6055-5.44922L21.3672-4.70703C21.8457-4.22852 22.4609-4.19922 22.9297-4.66797L25.8398-7.58789C26.3086-8.05664 26.2891-8.65234 25.8105-9.13086L25.0391-9.89258C24.5605-10.3711 24.1895-10.5273 23.7109-10.4883L23.1348-10.4395L22.4902-11.0742L22.7344-12.1973C22.8613-12.7637 22.7051-13.2031 22.1191-13.7891L19.9219-15.9766C16.582-19.2969 12.1484-19.2188 9.25781-16.3281C8.83789-15.918 8.80859-15.3418 9.04297-14.9512C9.27734-14.5898 9.73633-14.3555 10.3809-14.5215C11.8457-14.8633 13.3691-14.9219 14.7949-13.9844L14.209-12.5293C14.0137-12.0508 13.9844-11.6504 14.1113-11.2891L3.04688-0.898438C2.06055 0.0195312 1.98242 0.996094 2.8418 1.86523ZM10.752-15.957C13.1836-17.7344 16.4746-17.4316 18.7012-15.2051L21.1328-12.793C21.3672-12.5586 21.4062-12.373 21.3379-12.0312L21.0156-10.5469L22.5195-9.0625L23.5059-9.12109C23.7598-9.13086 23.8379-9.11133 24.0332-8.91602L24.6094-8.33984L22.168-5.89844L21.5918-6.47461C21.3965-6.66992 21.3672-6.74805 21.377-7.01172L21.4453-7.98828L19.9512-9.47266L18.4277-9.21875C18.1055-9.15039 17.959-9.17969 17.7148-9.41406L15.7129-11.416C15.459-11.6504 15.4297-11.8164 15.5859-12.1875L16.4648-14.2773C14.9023-15.7324 12.8711-16.3574 10.8398-15.7617C10.6836-15.7227 10.625-15.8496 10.752-15.957ZM5.27344 2.30469L4.10156 1.14258C3.63281 0.683594 3.74023 0.341797 4.14062-0.0195312L14.9512-10.1953L16.416-8.71094L6.42578 2.27539C6.07422 2.67578 5.74219 2.77344 5.27344 2.30469Z"/>
  </g>
  <text style="stroke:none;fill:black;font-family:-apple-system,&quot;SF Pro Display&quot;,&quot;SF Pro Text&quot;,Helvetica,sans-serif;font-weight:bold;" transform="matrix(1 0 0 1 1289 1953)">Exporting</text>
  <text style="stroke:none;fill:black;font-family:-apple-system,&quot;SF Pro Display&quot;,&quot;SF Pro Text&quot;,Helvetica,sans-serif;" transform="matrix(1 0 0 1 1289 1971)">Symbols should be outlined when exporting to ensure the</text>
  <text style="stroke:none;fill:black;font-family:-apple-system,&quot;SF Pro Display&quot;,&quot;SF Pro Text&quot;,Helvetica,sans-serif;" transform="matrix(1 0 0 1 1289 1989)">design is preserved when submitting to Xcode.</text>
  <text id="template-version" style="stroke:none;fill:black;font-family:-apple-system,&quot;SF Pro Display&quot;,&quot;SF Pro Text&quot;,Helvetica,sans-serif;text-anchor:end;" transform="matrix(1 0 0 1 3036 1933)">Template v.2.0</text>
  <text style="stroke:none;fill:black;font-family:-apple-system,&quot;SF Pro Display&quot;,&quot;SF Pro Text&quot;,Helvetica,sans-serif;text-anchor:end;" transform="matrix(1 0 0 1 3036 1951)">Requires Xcode 12 or greater</text>
  <text style="stroke:none;fill:black;font-family:-apple-system,&quot;SF Pro Display&quot;,&quot;SF Pro Text&quot;,Helvetica,sans-serif;text-anchor:end;" transform="matrix(1 0 0 1 3036 1969)">Generated from arrowshape.turn.up.backward</text>
  <text style="stroke:none;fill:black;font-family:-apple-system,&quot;SF Pro Display&quot;,&quot;SF Pro Text&quot;,Helvetica,sans-serif;text-anchor:end;" transform="matrix(1 0 0 1 3036 1987)">Typeset at 100 points</text>
  <text style="stroke:none;fill:black;font-family:-apple-system,&quot;SF Pro Display&quot;,&quot;SF Pro Text&quot;,Helvetica,sans-serif;" transform="matrix(1 0 0 1 263 726)">Small</text>
  <text style="stroke:none;fill:black;font-family:-apple-system,&quot;SF Pro Display&quot;,&quot;SF Pro Text&quot;,Helvetica,sans-serif;" transform="matrix(1 0 0 1 263 1156)">Medium</text>
  <text style="stroke:none;fill:black;font-family:-apple-system,&quot;SF Pro Display&quot;,&quot;SF Pro Text&quot;,Helvetica,sans-serif;" transform="matrix(1 0 0 1 263 1586)">Large</text>
 </g>
 <g id="Guides">
  <g id="H-reference" style="fill:#27AAE1;stroke:none;" transform="matrix(1 0 0 1 339 696)">
   <path d="M0.976562 0L3.66211 0L12.9883-24.4629L45.752-24.4629L55.127 0L57.7637 0L30.6152-70.459L28.125-70.459ZM29.3457-67.1387L29.4434-67.1387L44.873-26.709L13.8672-26.709Z"/>
  </g>
  <line id="Baseline-S" style="fill:none;stroke:#27AAE1;opacity:1;stroke-width:0.5;" x1="263" x2="3036" y1="696" y2="696"/>
  <line id="Capline-S" style="fill:none;stroke:#27AAE1;opacity:1;stroke-width:0.5;" x1="263" x2="3036" y1="625.541" y2="625.541"/>
  <g id="H-reference" style="fill:#27AAE1;stroke:none;" transform="matrix(1 0 0 1 339 1126)">
   <path d="M0.976562 0L3.66211 0L12.9883-24.4629L45.752-24.4629L55.127 0L57.7637 0L30.6152-70.459L28.125-70.459ZM29.3457-67.1387L29.4434-67.1387L44.873-26.709L13.8672-26.709Z"/>
  </g>
  <line id="Baseline-M" style="fill:none;stroke:#27AAE1;opacity:1;stroke-width:0.5;" x1="263" x2="3036" y1="1126" y2="1126"/>
  <line id="Capline-M" style="fill:none;stroke:#27AAE1;opacity:1;stroke-width:0.5;" x1="263" x2="3036" y1="1055.54" y2="1055.54"/>
  <g id="H-reference" style="fill:#27AAE1;stroke:none;" transform="matrix(1 0 0 1 339 1556)">
   <path d="M0.976562 0L3.66211 0L12.9883-24.4629L45.752-24.4629L55.127 0L57.7637 0L30.6152-70.459L28.125-70.459ZM29.3457-67.1387L29.4434-67.1387L44.873-26.709L13.8672-26.709Z"/>
  </g>
  <line id="Baseline-L" style="fill:none;stroke:#27AAE1;opacity:1;stroke-width:0.5;" x1="263" x2="3036" y1="1556" y2="1556"/>
  <line id="Capline-L" style="fill:none;stroke:#27AAE1;opacity:1;stroke-width:0.5;" x1="263" x2="3036" y1="1485.54" y2="1485.54"/>
  <line id="left-margin" style="fill:none;stroke:#00AEEF;stroke-width:0.5;opacity:1.0;" x1="1387.86" x2="1387.86" y1="1030.79" y2="1150.12"/>
  <line id="right-margin" style="fill:none;stroke:#00AEEF;stroke-width:0.5;opacity:1.0;" x1="1511.83" x2="1511.83" y1="1030.79" y2="1150.12"/>
 </g>
 <g id="Symbols">
  <g id="Black-L" transform="matrix(1 0 0 1 2851.76 1556)">
   <path d="M75.5371 26.3672C82.4707 26.3672 87.7441 21.0938 87.7441 14.209L87.7441-3.71094L88.4277-3.71094C106.982-3.71094 116.846 4.6875 123.535 16.6016C127.1 22.9004 130.811 25.1953 136.035 25.1953C143.701 25.1953 147.998 17.5293 147.998 1.9043C147.998-40.9668 127.002-66.2598 88.4277-66.2598L87.7441-66.2598L87.7441-84.4727C87.7441-91.4062 82.4707-96.8262 75.4883-96.8262C71.2402-96.8262 67.9688-95.2148 63.2812-90.9668L12.793-44.3848C10.2051-41.9434 8.83789-38.4766 8.83789-35.2051C8.83789-32.1777 10.2539-28.418 12.8418-25.9766L63.2812 20.6543C67.5781 24.6582 71.0449 26.3672 75.5371 26.3672ZM70.2148 1.36719C69.9219 1.36719 69.5801 1.17188 69.2871 0.878906L31.9824-34.2773C31.5918-34.668 31.4453-34.9121 31.4453-35.2051C31.4453-35.5469 31.5918-35.791 31.9824-36.1816L69.2871-71.4844C69.5801-71.7285 69.9219-71.8262 70.2148-71.8262C70.8008-71.8262 71.3379-71.3867 71.3379-70.6543L71.3379-50.7812C71.3379-49.3652 71.9238-48.7305 73.3398-48.7305L80.4688-48.7305C113.867-48.7305 130.957-30.6641 131.396-1.07422C131.396-0.732422 131.201-0.585938 131.006-0.585938C130.762-0.585938 130.664-0.683594 130.469-1.02539C122.852-16.2109 106.299-21.6797 80.4688-21.6797L73.3398-21.6797C71.9238-21.6797 71.3379-21.0938 71.3379-19.6777L71.3379 0.146484C71.3379 0.830078 70.8008 1.36719 70.2148 1.36719Z"/>
  </g>
  <g id="Heavy-L" transform="matrix(1 0 0 1 2555.63 1556)">
   <path d="M74.2676 25.293C80.4688 25.293 85.1562 20.6055 85.1562 14.4043L85.1562-5.12695L86.1328-5.12695C106.396-5.12695 117.676 2.88086 125.244 16.7969C128.418 22.4609 131.836 24.4141 136.426 24.4141C143.018 24.4141 146.973 17.8711 146.973 4.83398C146.973-39.1602 125.977-64.9414 86.1328-64.9414L85.1562-64.9414L85.1562-84.668C85.1562-90.8691 80.4688-95.752 74.2188-95.752C70.2637-95.752 67.334-94.2383 63.0859-90.332L12.793-43.8477C10.2051-41.4062 8.98438-38.1836 8.98438-35.2051C8.98438-32.4219 10.2539-29.0039 12.8418-26.6113L63.0859 20.0684C66.9922 23.6816 70.166 25.293 74.2676 25.293ZM69.5312 3.4668C69.1895 3.4668 68.8477 3.32031 68.5059 2.97852L29.1992-34.082C28.7109-34.5703 28.5645-34.8633 28.5645-35.2051C28.5645-35.5957 28.7109-35.8887 29.1992-36.377L68.5059-73.6328C68.7988-73.9258 69.1406-74.0723 69.4824-74.0723C70.1172-74.0723 70.5566-73.6328 70.5566-72.9492L70.5566-51.6602C70.5566-50.2441 71.1914-49.6094 72.5586-49.6094L79.834-49.6094C115.234-49.6094 131.885-29.1992 132.471 1.36719C132.471 1.75781 132.275 1.9043 132.031 1.9043C131.787 1.9043 131.641 1.75781 131.445 1.36719C123.828-14.209 106.689-20.8008 79.834-20.8008L72.5586-20.8008C71.1914-20.8008 70.5566-20.2148 70.5566-18.7988L70.5566 2.29492C70.5566 2.97852 70.1172 3.4668 69.5312 3.4668Z"/>
  </g>
  <g id="Bold-L" transform="matrix(1 0 0 1 2259.58 1556)">
   <path d="M72.8516 24.0723C78.2715 24.0723 82.2754 20.0195 82.2754 14.5996L82.2754-6.73828L83.6426-6.73828C105.713-6.73828 118.604 0.78125 127.148 16.9922C129.883 21.9727 133.008 23.4863 136.914 23.4863C142.285 23.4863 145.801 18.2617 145.801 8.05664C145.801-37.1582 124.756-63.4277 83.6426-63.4277L82.2754-63.4277L82.2754-84.8633C82.2754-90.2832 78.2715-94.5312 72.7539-94.5312C69.2383-94.5312 66.6504-93.1152 62.8418-89.6484L12.793-43.1641C10.2051-40.7227 9.17969-37.8906 9.17969-35.2539C9.17969-32.7148 10.2051-29.7363 12.793-27.2949L62.8418 19.3848C66.3086 22.6074 69.1895 24.0723 72.8516 24.0723ZM68.7012 5.85938C68.3594 5.85938 68.0176 5.66406 67.627 5.32227L26.0254-33.8867C25.4395-34.4238 25.293-34.8145 25.293-35.2539C25.293-35.6934 25.4883-36.0352 26.0254-36.5723L67.627-76.0742C67.9199-76.3672 68.3105-76.5625 68.7012-76.5625C69.2871-76.5625 69.7266-76.123 69.7266-75.4883L69.7266-52.6367C69.7266-51.2207 70.3125-50.5859 71.7285-50.5859L79.0527-50.5859C116.797-50.5859 132.959-27.5391 133.691 4.05273C133.691 4.49219 133.496 4.6875 133.203 4.6875C132.91 4.6875 132.764 4.49219 132.568 4.05273C124.902-12.0117 107.08-19.7754 79.0527-19.7754L71.7285-19.7754C70.3125-19.7754 69.7266-19.1895 69.7266-17.7734L69.7266 4.73633C69.7266 5.37109 69.2871 5.85938 68.7012 5.85938Z"/>
  </g>
  <g id="Semibold-L" transform="matrix(1 0 0 1 1963.34 1556)">
   <path d="M71.875 23.2422C76.709 23.2422 80.2734 19.5801 80.2734 14.7949L80.2734-7.8125L81.8848-7.8125C105.225-7.8125 119.238-0.634766 128.467 17.1387C130.908 21.6309 133.838 22.8516 137.207 22.8516C141.748 22.8516 145.02 18.5547 145.02 10.3027C145.02-35.791 123.975-62.4023 81.8848-62.4023L80.2734-62.4023L80.2734-85.0098C80.2734-89.8438 76.709-93.7012 71.7773-93.7012C68.5059-93.7012 66.1621-92.3828 62.6953-89.1602L12.793-42.7246C10.1562-40.2832 9.27734-37.6465 9.27734-35.2539C9.27734-32.9102 10.2051-30.1758 12.793-27.7832L62.6953 18.8965C65.8691 21.8262 68.5059 23.2422 71.875 23.2422ZM68.1641 7.4707C67.7734 7.4707 67.4316 7.27539 67.041 6.88477L23.877-33.7402C23.1934-34.375 22.998-34.8145 22.998-35.2539C22.998-35.7422 23.2422-36.1328 23.877-36.7676L66.9922-77.7344C67.334-78.0273 67.7246-78.2715 68.1152-78.2715C68.7012-78.2715 69.1406-77.8809 69.1406-77.2461L69.1406-53.2715C69.1406-51.8555 69.7266-51.2695 71.1426-51.2695L78.5645-51.2695C117.822-51.2695 133.691-26.416 134.521 5.95703C134.521 6.39648 134.326 6.64062 133.984 6.64062C133.691 6.64062 133.545 6.34766 133.301 5.9082C125.684-10.498 107.373-19.0918 78.5645-19.0918L71.1426-19.0918C69.7266-19.0918 69.1406-18.5059 69.1406-17.0898L69.1406 6.39648C69.1406 7.03125 68.75 7.4707 68.1641 7.4707Z"/>
  </g>
  <g id="Medium-L" transform="matrix(1 0 0 1 1666.97 1556)">
   <path d="M71.1426 22.5586C75.5859 22.5586 78.7598 19.2871 78.7598 14.8926L78.7598-8.64258L80.5664-8.64258C104.883-8.64258 119.727-1.70898 129.492 17.2363C131.689 21.3867 134.424 22.3633 137.451 22.3633C141.357 22.3633 144.434 18.75 144.434 11.9629C144.434-34.7168 123.34-61.6211 80.5664-61.6211L78.7598-61.6211L78.7598-85.1562C78.7598-89.5508 75.5859-93.1152 71.0449-93.1152C67.9688-93.1152 65.7715-91.7969 62.5488-88.8184L12.793-42.4316C10.1562-39.9414 9.375-37.5 9.375-35.2539C9.375-33.1055 10.2051-30.5664 12.793-28.125L62.5488 18.5547C65.5273 21.2891 68.0176 22.5586 71.1426 22.5586ZM67.7246 8.69141C67.3828 8.69141 66.9922 8.54492 66.5527 8.10547L22.2168-33.6426C21.5332-34.3262 21.2891-34.7656 21.2891-35.2539C21.2891-35.7422 21.5332-36.2305 22.2168-36.8652L66.5527-79.0039C66.8945-79.2969 67.2852-79.541 67.7246-79.541C68.3105-79.541 68.7012-79.1504 68.7012-78.5645L68.7012-53.8086C68.7012-52.3926 69.2871-51.8066 70.7031-51.8066L78.1738-51.8066C118.652-51.8066 134.229-25.5371 135.107 7.37305C135.107 7.8125 134.961 8.10547 134.57 8.10547C134.277 8.10547 134.082 7.8125 133.887 7.32422C126.221-9.32617 107.617-18.5547 78.1738-18.5547L70.7031-18.5547C69.2871-18.5547 68.7012-17.9688 68.7012-16.5527L68.7012 7.66602C68.7012 8.30078 68.3105 8.69141 67.7246 8.69141Z"/>
  </g>
  <g id="Regular-L" transform="matrix(1 0 0 1 1370.69 1556)">
   <path d="M70.166 21.7285C74.0723 21.7285 76.7578 18.8965 76.7578 15.0391L76.7578-9.7168L78.8086-9.7168C104.443-9.7168 120.361-3.125 130.762 17.334C132.715 21.0449 135.205 21.7285 137.744 21.7285C140.82 21.7285 143.604 19.043 143.604 14.209C143.604-33.3496 122.559-60.5957 78.8086-60.5957L76.7578-60.5957L76.7578-85.2539C76.7578-89.1113 74.0723-92.2852 70.0684-92.2852C67.2363-92.2852 65.2832-91.0156 62.4023-88.3301L12.793-41.9922C10.1562-39.502 9.47266-37.3047 9.47266-35.2539C9.47266-33.3008 10.2051-31.0547 12.793-28.6133L62.4023 18.0664C65.0391 20.5566 67.334 21.7285 70.166 21.7285ZM67.1875 10.3027C66.7969 10.3027 66.4062 10.1562 65.9668 9.7168L20.0684-33.4961C19.2871-34.2285 19.0918-34.7168 19.0918-35.2539C19.0918-35.791 19.3359-36.3281 20.0684-37.0117L65.918-80.6641C66.3086-80.957 66.6992-81.25 67.1875-81.25C67.7246-81.25 68.1152-80.8594 68.1152-80.3223L68.1152-54.4434C68.1152-53.0762 68.7012-52.4414 70.1172-52.4414L77.6855-52.4414C119.678-52.4414 134.961-24.4141 135.938 9.22852C135.938 9.7168 135.742 10.0098 135.4 10.0098C135.059 10.0098 134.863 9.66797 134.619 9.13086C127.002-7.8125 107.91-17.8711 77.6855-17.8711L70.1172-17.8711C68.7012-17.8711 68.1152-17.2852 68.1152-15.8691L68.1152 9.32617C68.1152 9.91211 67.7734 10.3027 67.1875 10.3027Z"/>
  </g>
  <g id="Light-L" transform="matrix(1 0 0 1 1075.13 1556)">
   <path d="M69.2871 20.7031C72.7051 20.7031 74.9023 18.1641 74.9023 14.8926L74.9023-10.791L77.2461-10.791C104.492-10.791 121.094-3.61328 130.762 16.6504C132.324 19.873 134.326 20.7031 136.621 20.7031C139.355 20.7031 141.699 18.3594 141.699 14.3555C141.699-34.4727 118.799-59.375 77.2461-59.375L74.9023-59.375L74.9023-85.2051C74.9023-88.5254 72.7051-91.2109 69.2383-91.2109C66.7969-91.2109 65.0391-90.0879 62.793-87.9883L13.2812-41.8457C10.4004-39.1602 9.81445-37.1582 9.81445-35.2539C9.81445-33.3984 10.4492-31.3965 13.2812-28.7109L62.793 17.627C64.8926 19.5801 66.8945 20.7031 69.2871 20.7031ZM67.2852 12.207C66.8457 12.207 66.4062 11.9629 65.8203 11.4258L18.6035-32.7637C17.4316-33.7891 17.0898-34.5215 17.0898-35.2539C17.0898-36.0352 17.4805-36.7188 18.6035-37.793L65.7715-82.2266C66.2109-82.6172 66.6504-82.959 67.2363-82.959C67.8711-82.959 68.2617-82.5684 68.2617-81.9336L68.2617-54.9316C68.2617-53.6133 68.7988-53.0762 70.1172-53.0762L76.416-53.0762C116.748-53.0762 135.156-27.6367 135.791 11.2305C135.791 11.7676 135.596 12.1094 135.059 12.1094C134.619 12.1094 134.375 11.6699 134.131 11.0352C126.172-7.4707 107.129-17.0898 76.416-17.0898L70.1172-17.0898C68.7988-17.0898 68.2617-16.6016 68.2617-15.2344L68.2617 11.0352C68.2617 11.7188 67.9199 12.207 67.2852 12.207Z"/>
  </g>
  <g id="Thin-L" transform="matrix(1 0 0 1 779.933 1556)">
   <path d="M68.1641 19.2871C70.8984 19.2871 72.4121 17.2363 72.4121 14.6484L72.4121-12.207L75.1953-12.207C104.59-12.207 122.07-4.29688 130.713 15.7227C131.836 18.3594 133.154 19.2871 135.156 19.2871C137.402 19.2871 139.16 17.4805 139.16 14.5508C139.16-35.9863 113.818-57.7148 75.1953-57.7148L72.4121-57.7148L72.4121-85.1562C72.4121-87.7441 70.8984-89.8438 68.1641-89.8438C66.2598-89.8438 64.7461-88.8184 63.3301-87.5L13.9648-41.6504C10.7422-38.6719 10.3027-37.0117 10.3027-35.2539C10.3027-33.5449 10.8398-31.8359 13.9648-28.8574L63.3301 16.9922C64.6973 18.3105 66.2598 19.2871 68.1641 19.2871ZM67.3828 14.6484C66.8945 14.6484 66.4062 14.4043 65.6738 13.7207L16.6016-31.7383C14.9902-33.252 14.502-34.2285 14.502-35.2539C14.502-36.3281 15.0391-37.3047 16.6016-38.7695L65.5762-84.3262C66.1133-84.8145 66.6016-85.2539 67.2852-85.2539C68.0176-85.2539 68.457-84.7656 68.457-84.082L68.457-55.5176C68.457-54.2969 68.8965-53.8574 70.1172-53.8574L74.7559-53.8574C112.891-53.8574 135.449-31.9824 135.547 13.8672C135.547 14.502 135.352 14.9414 134.668 14.9414C134.033 14.9414 133.74 14.3066 133.447 13.5254C125.098-7.08008 106.104-16.0645 74.7559-16.0645L70.1172-16.0645C68.8965-16.0645 68.457-15.6738 68.457-14.4043L68.457 13.3301C68.457 14.1113 68.0664 14.6484 67.3828 14.6484Z"/>
  </g>
  <g id="Ultralight-L" transform="matrix(1 0 0 1 484.003 1556)">
   <path d="M67.5781 18.6035C70.0195 18.6035 71.0938 16.7969 71.0938 14.5508L71.0938-12.9395L74.1211-12.9395C104.639-12.9395 122.559-4.63867 130.664 15.2344C131.592 17.5781 132.568 18.6035 134.424 18.6035C136.377 18.6035 137.842 17.041 137.842 14.6484C137.842-36.7676 111.279-56.8848 74.1211-56.8848L71.0938-56.8848L71.0938-85.1074C71.0938-87.3535 70.0195-89.1113 67.627-89.1113C65.9668-89.1113 64.5996-88.1836 63.5742-87.2559L14.3066-41.6016C10.9375-38.4277 10.5957-36.9141 10.5957-35.2539C10.5957-33.5938 11.0352-32.0801 14.3066-28.9551L63.5742 16.6992C64.5996 17.6758 65.9668 18.6035 67.5781 18.6035ZM67.4316 15.918C66.9434 15.918 66.4062 15.6738 65.5762 14.9414L15.5762-31.25C13.7207-32.959 13.1836-34.082 13.1836-35.2539C13.1836-36.4746 13.7695-37.5977 15.5762-39.3066L65.4785-85.4004C66.0645-85.8887 66.5527-86.4258 67.334-86.4258C68.0664-86.4258 68.5547-85.9375 68.5547-85.1562L68.5547-55.8594C68.5547-54.6875 68.9453-54.2969 70.1172-54.2969L73.877-54.2969C110.889-54.2969 135.596-34.1797 135.449 15.2344C135.449 15.918 135.205 16.4062 134.424 16.4062C133.74 16.4062 133.398 15.625 133.105 14.7949C124.561-6.83594 105.566-15.5762 73.877-15.5762L70.1172-15.5762C68.9453-15.5762 68.5547-15.1855 68.5547-14.0137L68.5547 14.502C68.5547 15.332 68.1641 15.918 67.4316 15.918Z"/>
  </g>
  <g id="Black-M" transform="matrix(1 0 0 1 2869.95 1126)">
   <path d="M59.8145 13.4277C65.8691 13.4277 70.5078 8.78906 70.5078 2.73438L70.5078-9.47266L70.752-9.47266C83.7891-9.47266 89.7949-2.05078 93.4082 4.3457C96.4844 9.81445 99.5117 12.1582 104.297 12.1582C111.523 12.1582 115.088 4.78516 115.088-10.2539C115.088-42.7246 97.8516-60.4004 70.752-60.4004L70.5078-60.4004L70.5078-73.1445C70.5078-79.1504 65.8691-83.8379 59.8145-83.8379C56.25-83.8379 53.418-82.5684 49.5117-79.0527L10.2051-43.0664C8.05664-41.0645 6.83594-38.0371 6.83594-35.2051C6.83594-32.5684 8.10547-29.2969 10.2539-27.2949L49.5117 8.64258C53.0762 11.9629 55.957 13.4277 59.8145 13.4277ZM55.4199-8.74023C55.1758-8.74023 54.9316-8.88672 54.6875-9.13086L27.7832-34.3262C27.3926-34.668 27.2949-34.9609 27.2949-35.2051C27.2949-35.498 27.3926-35.6934 27.7832-36.084L54.6875-61.2793C54.9316-61.4746 55.1758-61.5234 55.4199-61.5234C55.9082-61.5234 56.3477-61.1328 56.3477-60.498L56.3477-46.3379C56.3477-45.2637 56.7871-44.873 57.8613-44.873L62.5977-44.873C84.8633-44.873 100.293-35.4492 100.293-10.9375C100.293-10.6934 100.146-10.5957 99.9512-10.5957C99.7559-10.5957 99.6582-10.6934 99.5117-10.9375C93.457-22.998 81.4453-25.5371 62.5977-25.5371L57.8613-25.5371C56.7871-25.5371 56.3477-25.0977 56.3477-24.0723L56.3477-9.81445C56.3477-9.17969 55.9082-8.74023 55.4199-8.74023Z"/>
  </g>
  <g id="Heavy-M" transform="matrix(1 0 0 1 2573.58 1126)">
   <path d="M58.6426 12.5C64.0137 12.5 68.1641 8.39844 68.1641 2.97852L68.1641-10.7422L68.6523-10.7422C83.1055-10.7422 90.5273-3.95508 95.3125 4.6875C98.0469 9.61914 100.879 11.5234 105.029 11.5234C111.133 11.5234 114.453 5.37109 114.453-7.12891C114.453-40.4785 97.7051-59.2773 68.6523-59.2773L68.1641-59.2773L68.1641-73.3398C68.1641-78.7598 64.0137-82.9102 58.5938-82.9102C55.3223-82.9102 52.7832-81.7383 49.2188-78.4668L10.0586-42.4316C7.95898-40.4785 6.93359-37.7441 6.93359-35.2051C6.93359-32.8125 8.00781-29.8828 10.1074-27.9297L49.2188 8.10547C52.4902 11.1816 55.127 12.5 58.6426 12.5ZM54.6387-6.88477C54.3457-6.88477 54.1016-7.03125 53.8574-7.27539L25.0977-34.3262C24.707-34.7168 24.6094-34.9609 24.6094-35.2051C24.6094-35.498 24.707-35.7422 25.0977-36.084L53.8574-63.2324C54.1016-63.4277 54.3457-63.4766 54.6387-63.4766C55.127-63.4766 55.5176-63.1348 55.5176-62.5488L55.5176-47.168C55.5176-46.0938 55.957-45.6543 57.0312-45.6543L62.207-45.6543C87.1094-45.6543 101.27-32.959 101.514-8.83789C101.514-8.54492 101.367-8.39844 101.172-8.39844C100.977-8.39844 100.879-8.54492 100.732-8.83789C94.7266-20.8984 82.0801-24.7559 62.207-24.7559L57.0312-24.7559C55.957-24.7559 55.5176-24.3164 55.5176-23.2422L55.5176-7.91016C55.5176-7.32422 55.127-6.88477 54.6387-6.88477Z"/>
  </g>
  <g id="Bold-M" transform="matrix(1 0 0 1 2277.26 1126)">
   <path d="M57.3242 11.4746C62.0117 11.4746 65.5273 7.95898 65.5273 3.27148L65.5273-12.1582L66.3574-12.1582C82.3242-12.1582 91.3086-6.05469 97.4121 5.12695C99.8047 9.42383 102.393 10.8398 105.859 10.8398C110.742 10.8398 113.721 6.00586 113.721-3.66211C113.721-37.9395 97.4609-58.0078 66.3574-58.0078L65.5273-58.0078L65.5273-73.584C65.5273-78.2715 62.0117-81.9336 57.2754-81.9336C54.2969-81.9336 52.0996-80.8105 48.8281-77.832L9.91211-41.7969C7.91016-39.8926 6.98242-37.4512 6.98242-35.2051C6.98242-33.1055 7.91016-30.5176 9.91211-28.6621L48.8281 7.51953C51.8066 10.2539 54.1992 11.4746 57.3242 11.4746ZM53.7109-4.88281C53.4668-4.88281 53.2227-4.98047 52.9297-5.27344L22.1191-34.3262C21.7285-34.7168 21.582-34.9609 21.582-35.2051C21.582-35.5469 21.7285-35.7422 22.1191-36.1328L52.9297-65.3809C53.1738-65.5762 53.418-65.7227 53.7109-65.7227C54.1992-65.7227 54.541-65.3809 54.541-64.8926L54.541-48.0957C54.541-47.0215 55.0293-46.5332 56.1035-46.5332L61.7676-46.5332C89.6484-46.5332 102.393-30.2246 102.881-6.44531C102.881-6.15234 102.734-6.00586 102.539-6.00586C102.344-6.00586 102.197-6.15234 102.1-6.44531C96.1914-18.5547 82.7637-23.877 61.7676-23.877L56.1035-23.877C55.0293-23.877 54.541-23.4375 54.541-22.3145L54.541-5.76172C54.541-5.22461 54.1992-4.88281 53.7109-4.88281Z"/>
  </g>
  <g id="Semibold-M" transform="matrix(1 0 0 1 1980.82 1126)">
   <path d="M56.4453 10.791C60.5957 10.791 63.7207 7.61719 63.7207 3.4668L63.7207-13.1348L64.7461-13.1348C81.7871-13.1348 91.8945-7.51953 98.8281 5.41992C100.977 9.27734 103.467 10.3516 106.396 10.3516C110.449 10.3516 113.232 6.44531 113.232-1.2207C113.232-36.1816 97.3633-57.1289 64.7461-57.1289L63.7207-57.1289L63.7207-73.7793C63.7207-77.9297 60.5957-81.25 56.3477-81.25C53.5645-81.25 51.6113-80.127 48.584-77.3438L9.76562-41.3086C7.8125-39.4531 7.03125-37.2559 7.03125-35.2539C7.03125-33.3008 7.86133-31.0059 9.81445-29.1504L48.584 7.08008C51.3184 9.61914 53.5645 10.791 56.4453 10.791ZM53.125-3.4668C52.832-3.4668 52.5879-3.56445 52.2949-3.85742L20.0195-34.3262C19.6289-34.7168 19.5312-34.9609 19.5312-35.2539C19.5312-35.5469 19.6777-35.791 20.0195-36.1328L52.2949-66.8945C52.5391-67.0898 52.7832-67.2363 53.125-67.2363C53.5645-67.2363 53.8574-66.9434 53.8574-66.4551L53.8574-48.7305C53.8574-47.6562 54.3457-47.168 55.4688-47.168L61.4258-47.168C91.3574-47.168 103.174-28.3203 103.809-4.78516C103.809-4.49219 103.662-4.3457 103.467-4.3457C103.271-4.3457 103.174-4.49219 103.027-4.78516C97.168-16.9434 83.252-23.291 61.4258-23.291L55.4688-23.291C54.3457-23.291 53.8574-22.8027 53.8574-21.6797L53.8574-4.29688C53.8574-3.80859 53.5645-3.4668 53.125-3.4668Z"/>
  </g>
  <g id="Medium-M" transform="matrix(1 0 0 1 1684.3 1126)">
   <path d="M55.7617 10.2051C59.5215 10.2051 62.3535 7.42188 62.3535 3.61328L62.3535-13.8672L63.5742-13.8672C81.3965-13.8672 92.2852-8.64258 99.9512 5.61523C101.904 9.17969 104.248 10.0098 106.836 10.0098C110.254 10.0098 112.891 6.78711 112.891 0.585938C112.891-34.8633 97.2168-56.4941 63.5742-56.4941L62.3535-56.4941L62.3535-73.877C62.3535-77.6855 59.5215-80.7129 55.6641-80.7129C53.0762-80.7129 51.2207-79.6387 48.3887-77.002L9.7168-40.9668C7.8125-39.1602 7.08008-37.1094 7.08008-35.2539C7.08008-33.4473 7.8125-31.3477 9.7168-29.541L48.3887 6.73828C50.9766 9.17969 53.0762 10.2051 55.7617 10.2051ZM52.6367-2.39258C52.3926-2.39258 52.0996-2.53906 51.8066-2.7832L18.457-34.3262C18.0664-34.7168 17.9199-34.9609 17.9199-35.2539C17.9199-35.5469 18.0664-35.791 18.457-36.1816L51.8066-68.0176C52.0508-68.2617 52.3438-68.4082 52.6367-68.4082C53.0762-68.4082 53.3691-68.1152 53.3691-67.6758L53.3691-49.2188C53.3691-48.0957 53.8574-47.6074 54.9805-47.6074L61.2305-47.6074C92.6758-47.6074 103.711-26.8555 104.541-3.56445C104.541-3.22266 104.395-3.07617 104.15-3.07617C103.955-3.07617 103.857-3.22266 103.711-3.51562C97.9004-15.7227 83.5938-22.8027 61.2305-22.8027L54.9805-22.8027C53.8574-22.8027 53.3691-22.3145 53.3691-21.1914L53.3691-3.17383C53.3691-2.68555 53.0762-2.39258 52.6367-2.39258Z"/>
  </g>
  <g id="Regular-M" transform="matrix(1 0 0 1 1387.86 1126)">
   <path d="M54.834 9.52148C58.1543 9.52148 60.5469 7.08008 60.5469 3.80859L60.5469-14.8438L61.9629-14.8438C80.9082-14.8438 92.8223-10.0586 101.367 5.9082C103.076 9.0332 105.322 9.52148 107.373 9.52148C109.961 9.52148 112.402 7.17773 112.402 2.97852C112.402-33.1055 97.1191-55.6152 61.9629-55.6152L60.5469-55.6152L60.5469-74.0723C60.5469-77.3438 58.1543-80.0293 54.7363-80.0293C52.3438-80.0293 50.7324-79.0039 48.1445-76.5625L9.61914-40.5273C7.71484-38.7207 7.12891-36.9141 7.12891-35.2539C7.12891-33.6426 7.76367-31.7871 9.61914-30.0293L48.1445 6.34766C50.4883 8.54492 52.4414 9.52148 54.834 9.52148ZM52.0508-0.976562C51.7578-0.976562 51.4648-1.12305 51.2207-1.41602L16.4062-34.3262C16.0156-34.7168 15.8691-34.9609 15.8691-35.2539C15.8691-35.5469 16.0156-35.8398 16.4062-36.1816L51.1719-69.5312C51.416-69.7266 51.709-69.9219 52.002-69.9219C52.4414-69.9219 52.6855-69.6289 52.6855-69.2383L52.6855-49.8535C52.6855-48.7305 53.2227-48.2422 54.3457-48.2422L60.8887-48.2422C94.3848-48.2422 104.492-25 105.469-1.95312C105.469-1.5625 105.322-1.41602 105.078-1.41602C104.883-1.41602 104.785-1.5625 104.639-1.9043C98.877-14.1602 84.082-22.2168 60.8887-22.2168L54.3457-22.2168C53.2227-22.2168 52.6855-21.7285 52.6855-20.6055L52.6855-1.70898C52.6855-1.26953 52.4414-0.976562 52.0508-0.976562Z"/>
  </g>
  <g id="Light-M" transform="matrix(1 0 0 1 1092.17 1126)">
   <path d="M54.1016 8.59375C56.9336 8.59375 58.8867 6.49414 58.8867 3.66211L58.8867-15.8203L60.5957-15.8203C80.957-15.8203 93.5059-10.498 101.318 5.27344C102.734 8.00781 104.492 8.59375 106.396 8.59375C108.643 8.59375 110.693 6.5918 110.693 3.125C110.693-34.1309 93.75-54.4922 60.5957-54.4922L58.8867-54.4922L58.8867-73.9746C58.8867-76.8066 56.9336-79.1016 54.0039-79.1016C51.9531-79.1016 50.5371-78.1738 48.4863-76.2695L10.0586-40.4297C7.95898-38.4277 7.4707-36.8164 7.4707-35.2539C7.4707-33.7402 8.00781-32.0801 10.0586-30.127L48.4863 5.9082C50.3906 7.66602 52.0508 8.59375 54.1016 8.59375ZM52.0996 0.683594C51.8066 0.683594 51.4648 0.537109 51.0742 0.146484L15.0879-33.6426C14.3555-34.3262 14.1602-34.7656 14.1602-35.2539C14.1602-35.7422 14.3555-36.1816 15.0879-36.8652L51.0742-70.9473C51.3672-71.2402 51.6602-71.4844 52.0508-71.4844C52.5391-71.4844 52.832-71.1426 52.832-70.7031L52.832-50.293C52.832-49.2188 53.2715-48.7793 54.3457-48.7793L59.7656-48.7793C91.7969-48.7793 104.639-27.9297 105.322-0.146484C105.322 0.292969 105.176 0.537109 104.834 0.537109C104.492 0.537109 104.346 0.195312 104.15-0.195312C98.1445-13.8672 83.3496-21.5332 59.7656-21.5332L54.3457-21.5332C53.2715-21.5332 52.832-21.0938 52.832-20.0195L52.832-0.146484C52.832 0.341797 52.5391 0.683594 52.0996 0.683594Z"/>
  </g>
  <g id="Thin-M" transform="matrix(1 0 0 1 796.828 1126)">
   <path d="M53.0762 7.32422C55.3711 7.32422 56.6406 5.66406 56.6406 3.4668L56.6406-17.0898L58.6914-17.0898C81.0547-17.0898 94.3848-11.1328 101.318 4.44336C102.295 6.64062 103.467 7.32422 105.078 7.32422C106.885 7.32422 108.398 5.81055 108.398 3.32031C108.398-35.498 89.3066-53.0273 58.6914-53.0273L56.6406-53.0273L56.6406-73.9258C56.6406-76.123 55.3711-77.832 53.0762-77.832C51.4648-77.832 50.2441-77.0508 48.9746-75.8301L10.6934-40.2344C8.25195-37.9883 7.91016-36.6211 7.91016-35.2539C7.91016-33.8867 8.30078-32.5195 10.6934-30.2734L48.9746 5.37109C50.1953 6.54297 51.4648 7.32422 53.0762 7.32422ZM52.1973 2.88086C51.8555 2.88086 51.4648 2.73438 50.9277 2.24609L13.2812-32.7637C12.1582-33.8379 11.8164-34.5215 11.8164-35.2539C11.8164-35.9863 12.207-36.7188 13.2812-37.7441L50.8789-72.8516C51.2695-73.1934 51.6113-73.4863 52.1484-73.4863C52.6855-73.4863 53.0273-73.1445 53.0273-72.6074L53.0273-50.8301C53.0273-49.8535 53.3691-49.5117 54.3457-49.5117L58.3008-49.5117C88.3301-49.5117 104.883-31.7871 105.127 2.24609C105.127 2.73438 104.932 3.07617 104.443 3.07617C104.004 3.07617 103.809 2.58789 103.564 2.00195C97.168-13.4766 82.4707-20.6055 58.3008-20.6055L54.3457-20.6055C53.3691-20.6055 53.0273-20.2637 53.0273-19.2871L53.0273 1.9043C53.0273 2.49023 52.7344 2.88086 52.1973 2.88086Z"/>
  </g>
  <g id="Ultralight-M" transform="matrix(1 0 0 1 500.8 1126)">
   <path d="M52.5391 6.68945C54.541 6.68945 55.5176 5.22461 55.5176 3.36914L55.5176-17.7246L57.7637-17.7246C81.1035-17.7246 94.8242-11.4258 101.27 4.05273C102.051 5.95703 102.93 6.68945 104.395 6.68945C106.006 6.68945 107.227 5.41992 107.227 3.36914C107.227-36.1816 87.0117-52.2949 57.7637-52.2949L55.5176-52.2949L55.5176-73.877C55.5176-75.7324 54.541-77.1973 52.5391-77.1973C51.2207-77.1973 50.0977-76.4648 49.1699-75.6348L10.9863-40.1855C8.44727-37.793 8.10547-36.5723 8.10547-35.2539C8.10547-33.9355 8.49609-32.7148 10.9863-30.3223L49.1699 5.12695C50.0977 5.95703 51.2207 6.68945 52.5391 6.68945ZM52.2461 4.05273C51.8555 4.05273 51.4648 3.85742 50.8301 3.27148L12.4023-32.2754C10.9863-33.5449 10.6445-34.375 10.6445-35.2539C10.6445-36.1328 11.084-36.9629 12.4023-38.2324L50.7812-73.7793C51.2207-74.1699 51.6113-74.5605 52.1484-74.5605C52.7344-74.5605 53.125-74.1699 53.125-73.584L53.125-51.123C53.125-50.1953 53.418-49.8535 54.3457-49.8535L57.5195-49.8535C86.5723-49.8535 105.029-33.7402 105.029 3.4668C105.029 4.00391 104.834 4.3457 104.248 4.3457C103.76 4.3457 103.516 3.80859 103.223 3.17383C96.6797-13.3301 81.9824-20.1172 57.5195-20.1172L54.3457-20.1172C53.418-20.1172 53.125-19.8242 53.125-18.8965L53.125 2.97852C53.125 3.61328 52.7832 4.05273 52.2461 4.05273Z"/>
  </g>
  <g id="Black-S" transform="matrix(1 0 0 1 2883.69 696)">
   <path d="M46.7773 2.83203C51.4648 2.83203 55.0781-0.78125 55.0781-5.46875L55.0781-15.1367L55.2734-15.1367C65.5762-15.1367 70.4102-9.375 73.3398-4.19922C75.7324 0.0488281 78.0762 1.85547 81.7871 1.85547C87.3535 1.85547 90.1367-3.80859 90.1367-15.4297C90.1367-40.918 76.709-54.8828 55.2734-54.8828L55.0781-54.8828L55.0781-64.9414C55.0781-69.6289 51.4648-73.2422 46.7773-73.2422C43.9941-73.2422 41.7969-72.2656 38.7695-69.5312L7.95898-41.3086C6.29883-39.7461 5.37109-37.4023 5.37109-35.2051C5.37109-33.1543 6.34766-30.6152 8.00781-29.0527L38.7695-0.878906C41.5527 1.70898 43.7988 2.83203 46.7773 2.83203ZM43.3594-14.3555C43.1641-14.3555 42.9688-14.4531 42.7734-14.6484L21.582-34.5215C21.2891-34.8145 21.1914-35.0098 21.1914-35.2051C21.1914-35.4492 21.2891-35.5957 21.582-35.8887L42.7734-55.7617C42.9688-55.9082 43.1641-55.957 43.3594-55.957C43.75-55.957 44.0918-55.6641 44.0918-55.1758L44.0918-43.9941C44.0918-43.1641 44.4336-42.8223 45.2637-42.8223L49.0234-42.8223C66.6992-42.8223 78.6621-35.1562 78.6621-16.0645C78.6621-15.8691 78.5645-15.7715 78.418-15.7715C78.2715-15.7715 78.1738-15.8691 78.0762-16.0645C73.3398-25.4883 63.8672-27.5879 49.0234-27.5879L45.2637-27.5879C44.4336-27.5879 44.0918-27.2461 44.0918-26.416L44.0918-15.1855C44.0918-14.6973 43.75-14.3555 43.3594-14.3555Z"/>
  </g>
  <g id="Heavy-S" transform="matrix(1 0 0 1 2587.13 696)">
   <path d="M45.9473 2.24609C50.1953 2.24609 53.4668-1.02539 53.4668-5.27344L53.4668-16.0156L53.8574-16.0156C65.0391-16.0156 70.8984-10.791 74.7559-3.85742C76.9531 0 79.1992 1.46484 82.4707 1.46484C87.207 1.46484 89.8438-3.32031 89.8438-13.0371C89.8438-39.0625 76.9531-54.1504 53.8574-54.1504L53.4668-54.1504L53.4668-65.1367C53.4668-69.3359 50.1953-72.6562 45.9473-72.6562C43.3105-72.6562 41.3574-71.7285 38.4766-69.1406L7.8125-40.8691C6.20117-39.3555 5.37109-37.207 5.37109-35.2051C5.37109-33.3496 6.25-31.0059 7.86133-29.541L38.4766-1.26953C41.1133 1.17188 43.2129 2.24609 45.9473 2.24609ZM42.7246-13.1348C42.5293-13.1348 42.334-13.2324 42.1387-13.4277L19.6777-34.6191C19.4336-34.8633 19.3359-35.0586 19.3359-35.2051C19.3359-35.4492 19.4336-35.5957 19.6777-35.8398L42.1387-57.0801C42.334-57.2266 42.5293-57.3242 42.7246-57.3242C43.1152-57.3242 43.4082-57.0312 43.4082-56.5918L43.4082-44.5801C43.4082-43.75 43.7988-43.3594 44.6289-43.3594L48.8281-43.3594C68.7012-43.3594 79.3945-32.959 79.5898-14.6484C79.5898-14.4531 79.4922-14.3066 79.3945-14.3066C79.248-14.3066 79.1504-14.4043 79.0527-14.5996C74.4141-23.9258 64.4043-27.0508 48.8281-27.0508L44.6289-27.0508C43.7988-27.0508 43.4082-26.709 43.4082-25.8301L43.4082-13.916C43.4082-13.4277 43.1152-13.1348 42.7246-13.1348Z"/>
  </g>
  <g id="Bold-S" transform="matrix(1 0 0 1 2290.59 696)">
   <path d="M45.0684 1.5625C48.8281 1.5625 51.6602-1.26953 51.6602-5.0293L51.6602-16.9922L52.2461-16.9922C64.4531-16.9922 71.4355-12.3535 76.3672-3.4668C78.3203 0 80.4688 1.07422 83.2031 1.07422C87.0605 1.07422 89.502-2.73438 89.502-10.4004C89.502-37.0117 77.1973-53.3203 52.2461-53.3203L51.6602-53.3203L51.6602-65.2832C51.6602-69.043 48.8281-72.0215 45.0195-72.0215C42.5781-72.0215 40.8203-71.0938 38.1836-68.6523L7.61719-40.3809C6.10352-38.9648 5.41992-37.0117 5.41992-35.2539C5.41992-33.5449 6.15234-31.4941 7.66602-30.0781L38.1836-1.66016C40.5762 0.585938 42.5293 1.5625 45.0684 1.5625ZM42.041-11.7676C41.8457-11.7676 41.6504-11.8652 41.4551-12.0605L17.5293-34.668C17.334-34.9121 17.2363-35.0586 17.2363-35.2539C17.2363-35.4004 17.334-35.5469 17.5293-35.791L41.4551-58.5938C41.6504-58.7402 41.8457-58.7891 42.041-58.7891C42.3828-58.7891 42.6758-58.5449 42.6758-58.1543L42.6758-45.2637C42.6758-44.3848 43.0664-43.9941 43.9453-43.9941L48.6328-43.9941C70.9473-43.9941 80.2246-30.4688 80.6641-13.0371C80.6641-12.8418 80.5664-12.6953 80.4688-12.6953C80.3223-12.6953 80.2246-12.793 80.127-12.9883C75.5859-22.168 65.0391-26.4648 48.6328-26.4648L43.9453-26.4648C43.0664-26.4648 42.6758-26.123 42.6758-25.2441L42.6758-12.4512C42.6758-12.0605 42.3828-11.7676 42.041-11.7676Z"/>
  </g>
  <g id="Semibold-S" transform="matrix(1 0 0 1 1994 696)">
   <path d="M44.4336 1.12305C47.8516 1.12305 50.4395-1.46484 50.4395-4.83398L50.4395-17.627L51.1719-17.627C64.0625-17.627 71.7773-13.4277 77.4902-3.17383C79.248-0.0488281 81.3477 0.78125 83.6914 0.78125C86.9629 0.78125 89.3066-2.39258 89.3066-8.54492C89.3066-35.5469 77.3926-52.7344 51.1719-52.7344L50.4395-52.7344L50.4395-65.4297C50.4395-68.8477 47.8516-71.582 44.3848-71.582C42.0898-71.582 40.4785-70.6543 37.9395-68.3105L7.51953-40.0391C6.05469-38.623 5.41992-36.8652 5.41992-35.2539C5.41992-33.6914 6.05469-31.8359 7.51953-30.4688L37.9395-1.95312C40.2344 0.195312 42.0898 1.12305 44.4336 1.12305ZM41.5527-10.8398C41.3574-10.8398 41.1621-10.9375 41.0156-11.1328L16.0645-34.7656C15.8691-34.9609 15.8203-35.1074 15.8203-35.2539C15.8203-35.4004 15.8691-35.5469 16.0645-35.7422L41.0156-59.6191C41.1621-59.7656 41.3574-59.8633 41.5527-59.8633C41.8945-59.8633 42.1387-59.6191 42.1387-59.2773L42.1387-45.7031C42.1387-44.8242 42.5293-44.4336 43.4082-44.4336L48.4863-44.4336C72.5098-44.4336 80.7617-28.7598 81.3965-11.9629C81.3965-11.7188 81.2988-11.6211 81.2012-11.6211C81.0547-11.6211 81.0059-11.6699 80.9082-11.8652C76.416-20.9473 65.4785-26.0742 48.4863-26.0742L43.4082-26.0742C42.5293-26.0742 42.1387-25.6836 42.1387-24.8047L42.1387-11.4746C42.1387-11.084 41.8945-10.8398 41.5527-10.8398Z"/>
  </g>
  <g id="Medium-S" transform="matrix(1 0 0 1 1697.39 696)">
   <path d="M43.9453 0.732422C47.1191 0.732422 49.5117-1.5625 49.5117-4.73633L49.5117-18.1641L50.3418-18.1641C63.7207-18.1641 72.0703-14.2578 78.3203-2.97852C79.9805-0.0488281 82.0312 0.585938 84.082 0.585938C86.9141 0.585938 89.1113-2.09961 89.1113-7.17773C89.1113-34.4727 77.5391-52.2949 50.3418-52.2949L49.5117-52.2949L49.5117-65.5273C49.5117-68.7012 47.1191-71.2402 43.8965-71.2402C41.6992-71.2402 40.1855-70.3613 37.793-68.0664L7.42188-39.7949C6.00586-38.4277 5.41992-36.7676 5.41992-35.2539C5.41992-33.7891 6.00586-32.0801 7.42188-30.7617L37.793-2.14844C39.9902-0.146484 41.748 0.732422 43.9453 0.732422ZM41.2109-10.1562C41.0156-10.1562 40.8203-10.2539 40.625-10.4004L14.9414-34.8145C14.7949-34.9609 14.7461-35.1074 14.7461-35.2539C14.7461-35.4004 14.7949-35.5469 14.9414-35.6934L40.625-60.4004C40.8203-60.5469 41.0156-60.6445 41.2109-60.6445C41.5039-60.6445 41.748-60.4004 41.748-60.1074L41.748-46.0449C41.748-45.166 42.1387-44.7266 43.0664-44.7266L48.3887-44.7266C73.6816-44.7266 81.2012-27.4902 81.9824-11.1328C81.9824-10.8887 81.8848-10.7422 81.7383-10.7422C81.6406-10.7422 81.543-10.8398 81.4453-11.0352C77.002-20.0684 65.7715-25.7812 48.3887-25.7812L43.0664-25.7812C42.1387-25.7812 41.748-25.3418 41.748-24.4629L41.748-10.6934C41.748-10.3516 41.5039-10.1562 41.2109-10.1562Z"/>
  </g>
  <g id="Regular-S" transform="matrix(1 0 0 1 1400.8 696)">
   <path d="M43.3594 0.292969C46.1426 0.292969 48.291-1.75781 48.291-4.54102L48.291-18.7988L49.2676-18.7988C63.3301-18.7988 72.4121-15.2832 79.4434-2.68555C80.9082-0.0488281 82.8613 0.292969 84.6191 0.292969C86.8164 0.292969 88.916-1.70898 88.916-5.37109C88.916-33.0566 77.6855-51.709 49.2676-51.709L48.291-51.709L48.291-65.6738C48.291-68.457 46.1426-70.8008 43.2617-70.8008C41.2109-70.8008 39.8438-69.9219 37.5488-67.7734L7.27539-39.4531C5.95703-38.1348 5.41992-36.6211 5.41992-35.2539C5.41992-33.9355 5.95703-32.373 7.27539-31.1035L37.5488-2.44141C39.6484-0.537109 41.3086 0.292969 43.3594 0.292969ZM40.7227-9.22852C40.5273-9.22852 40.332-9.32617 40.1855-9.47266L13.5254-34.8633C13.3789-35.0098 13.2812-35.1074 13.2812-35.2539C13.2812-35.4004 13.3789-35.498 13.5254-35.6445L40.1855-61.4258C40.332-61.5723 40.5273-61.6699 40.7227-61.6699C41.0156-61.6699 41.2109-61.4746 41.2109-61.1816L41.2109-46.4844C41.2109-45.6055 41.6504-45.166 42.5781-45.166L48.2422-45.166C75.2441-45.166 81.7871-25.7812 82.7148-10.0098C82.7148-9.76562 82.5684-9.66797 82.4707-9.66797C82.373-9.66797 82.3242-9.7168 82.2266-9.96094C77.832-18.8477 66.2109-25.3906 48.2422-25.3906L42.5781-25.3906C41.6504-25.3906 41.2109-24.9512 41.2109-24.0234L41.2109-9.7168C41.2109-9.42383 41.0156-9.22852 40.7227-9.22852Z"/>
  </g>
  <g id="Light-S" transform="matrix(1 0 0 1 1104.99 696)">
   <path d="M42.6758-0.537109C45.0684-0.537109 46.7773-2.29492 46.7773-4.6875L46.7773-19.6289L47.998-19.6289C63.3789-19.6289 72.998-15.7227 79.3945-3.22266C80.6152-0.976562 82.1777-0.537109 83.7402-0.537109C85.6445-0.537109 87.3535-2.24609 87.3535-5.22461C87.3535-33.9844 74.707-50.7324 47.998-50.7324L46.7773-50.7324L46.7773-65.625C46.7773-68.0176 45.0684-69.9707 42.5781-69.9707C40.8691-69.9707 39.6484-69.1895 37.8418-67.4805L7.71484-39.3555C6.15234-37.8418 5.71289-36.5234 5.71289-35.2539C5.71289-34.0332 6.15234-32.666 7.71484-31.2012L37.8418-2.83203C39.502-1.26953 40.918-0.537109 42.6758-0.537109ZM40.7715-7.71484C40.5762-7.71484 40.332-7.86133 40.0879-8.10547L12.3047-34.2773C11.8652-34.668 11.7676-34.9609 11.7676-35.2539C11.7676-35.5469 11.9141-35.8398 12.3047-36.2305L40.0391-62.6465C40.2832-62.8418 40.4785-63.0371 40.7715-63.0371C41.1133-63.0371 41.3574-62.793 41.3574-62.4512L41.3574-46.875C41.3574-45.9961 41.6992-45.6543 42.5781-45.6543L47.2656-45.6543C72.9004-45.6543 81.9336-28.3691 82.5684-8.44727C82.5684-8.10547 82.4219-7.95898 82.2266-7.95898C82.0312-7.95898 81.9336-8.1543 81.7871-8.44727C77.1484-18.6035 65.5762-24.7559 47.2656-24.7559L42.5781-24.7559C41.6992-24.7559 41.3574-24.4141 41.3574-23.5352L41.3574-8.34961C41.3574-7.95898 41.1133-7.71484 40.7715-7.71484Z"/>
  </g>
  <g id="Thin-S" transform="matrix(1 0 0 1 809.474 696)">
   <path d="M41.7969-1.66016C43.6523-1.66016 44.8242-3.02734 44.8242-4.88281L44.8242-20.752L46.3379-20.752C63.4766-20.752 73.7793-16.2109 79.3945-3.95508C80.2246-2.14844 81.25-1.66016 82.5684-1.66016C84.082-1.66016 85.3516-2.92969 85.3516-5.07812C85.3516-35.1562 70.8008-49.4629 46.3379-49.4629L44.8242-49.4629L44.8242-65.5762C44.8242-67.3828 43.6523-68.8477 41.748-68.8477C40.4297-68.8477 39.4043-68.2129 38.2812-67.1387L8.25195-39.209C6.39648-37.5 6.10352-36.377 6.10352-35.2539C6.10352-34.1309 6.44531-33.0078 8.25195-31.2988L38.2812-3.32031C39.3555-2.29492 40.4297-1.66016 41.7969-1.66016ZM40.8691-5.76172C40.5762-5.76172 40.332-5.9082 39.9414-6.29883L10.7422-33.4473C9.91211-34.2285 9.7168-34.7168 9.7168-35.2539C9.7168-35.791 9.96094-36.2793 10.7422-37.0605L39.8926-64.3066C40.1855-64.5996 40.4785-64.8438 40.8203-64.8438C41.2109-64.8438 41.5039-64.5508 41.5039-64.1602L41.5039-47.3633C41.5039-46.582 41.7969-46.2891 42.5781-46.2891L45.9473-46.2891C69.873-46.2891 82.1289-31.7871 82.373-6.29883C82.373-5.95703 82.2754-5.71289 81.8848-5.71289C81.5918-5.71289 81.4453-6.05469 81.25-6.49414C76.3184-18.2617 64.7949-23.9746 45.9473-23.9746L42.5781-23.9746C41.7969-23.9746 41.5039-23.6816 41.5039-22.9004L41.5039-6.54297C41.5039-6.10352 41.2598-5.76172 40.8691-5.76172Z"/>
  </g>
  <g id="Ultralight-S" transform="matrix(1 0 0 1 513.373 696)">
   <path d="M41.3086-2.19727C42.9199-2.19727 43.7988-3.41797 43.7988-4.98047L43.7988-21.3379L45.5078-21.3379C63.5254-21.3379 74.1699-16.5039 79.3457-4.3457C80.0293-2.7832 80.7617-2.19727 81.9824-2.19727C83.3008-2.19727 84.3262-3.27148 84.3262-4.98047C84.3262-35.791 68.75-48.7793 45.5078-48.7793L43.7988-48.7793L43.7988-65.5273C43.7988-67.041 42.9199-68.3105 41.3086-68.3105C40.1855-68.3105 39.3066-67.6758 38.4766-66.9434L8.54492-39.1113C6.54297-37.3047 6.29883-36.2793 6.29883-35.2539C6.29883-34.2285 6.5918-33.2031 8.54492-31.3965L38.4766-3.56445C39.2578-2.83203 40.1855-2.19727 41.3086-2.19727ZM40.918-4.78516C40.625-4.78516 40.332-4.93164 39.8438-5.32227L9.96094-33.0566C8.93555-33.9844 8.64258-34.6191 8.64258-35.2539C8.64258-35.8887 8.98438-36.5234 9.96094-37.4512L39.7949-65.1855C40.1367-65.4785 40.4297-65.7715 40.8691-65.7715C41.3086-65.7715 41.6016-65.4785 41.6016-65.0391L41.6016-47.6074C41.6016-46.875 41.8457-46.582 42.5781-46.582L45.2637-46.582C68.2617-46.582 82.2266-33.5449 82.2754-5.22461C82.2754-4.83398 82.1289-4.54102 81.7383-4.54102C81.3477-4.54102 81.1523-4.98047 80.957-5.46875C75.8789-18.1152 64.3555-23.5352 45.2637-23.5352L42.5781-23.5352C41.8457-23.5352 41.6016-23.291 41.6016-22.5586L41.6016-5.56641C41.6016-5.12695 41.3574-4.78516 40.918-4.78516Z"/>
  </g>
 </g>
</svg>
